<mxfile host="app.diagrams.net" modified="2023-07-26T17:51:11.639Z" agent="Mozilla/5.0 (X11; Linux x86_64; rv:102.0) Gecko/20100101 Firefox/102.0" etag="dQx0-M9Wo-GIFc1tHK3f" version="21.6.5" type="device">
  <diagram name="Page-1" id="oOdtjns4vc650SlTSXO1">
    <mxGraphModel dx="5052" dy="1592" grid="1" gridSize="10" guides="1" tooltips="1" connect="1" arrows="1" fold="1" page="1" pageScale="1" pageWidth="850" pageHeight="1100" math="0" shadow="0">
      <root>
        <mxCell id="0" />
        <mxCell id="1" parent="0" />
        <mxCell id="-07HqblfBBOj3RJs5DhZ-6" style="rounded=0;orthogonalLoop=1;jettySize=auto;html=1;entryX=0.1;entryY=0.5;entryDx=0;entryDy=0;entryPerimeter=0;" parent="1" source="NWIx76PXNGJgdybxBwXj-2" target="-07HqblfBBOj3RJs5DhZ-7" edge="1">
          <mxGeometry relative="1" as="geometry">
            <mxPoint x="320" y="455" as="targetPoint" />
          </mxGeometry>
        </mxCell>
        <mxCell id="8eoCRsITl5AoUwoS5pQE-3" value="" style="edgeStyle=orthogonalEdgeStyle;rounded=0;orthogonalLoop=1;jettySize=auto;html=1;" edge="1" parent="1" source="NWIx76PXNGJgdybxBwXj-2" target="8eoCRsITl5AoUwoS5pQE-2">
          <mxGeometry relative="1" as="geometry">
            <Array as="points">
              <mxPoint x="140" y="570" />
              <mxPoint x="-40" y="570" />
            </Array>
          </mxGeometry>
        </mxCell>
        <mxCell id="8eoCRsITl5AoUwoS5pQE-6" style="edgeStyle=orthogonalEdgeStyle;rounded=0;orthogonalLoop=1;jettySize=auto;html=1;entryX=0.5;entryY=0;entryDx=0;entryDy=0;" edge="1" parent="1" source="NWIx76PXNGJgdybxBwXj-2" target="8eoCRsITl5AoUwoS5pQE-4">
          <mxGeometry relative="1" as="geometry" />
        </mxCell>
        <mxCell id="8eoCRsITl5AoUwoS5pQE-7" style="edgeStyle=orthogonalEdgeStyle;rounded=0;orthogonalLoop=1;jettySize=auto;html=1;entryX=0.5;entryY=0;entryDx=0;entryDy=0;" edge="1" parent="1" source="NWIx76PXNGJgdybxBwXj-2" target="8eoCRsITl5AoUwoS5pQE-5">
          <mxGeometry relative="1" as="geometry">
            <Array as="points">
              <mxPoint x="140" y="570" />
              <mxPoint x="380" y="570" />
            </Array>
          </mxGeometry>
        </mxCell>
        <mxCell id="NWIx76PXNGJgdybxBwXj-2" value="Storage Memroy Driver Class" style="rounded=0;whiteSpace=wrap;html=1;fillColor=#d5e8d4;strokeColor=#82b366;" parent="1" vertex="1">
          <mxGeometry x="50" y="380" width="180" height="140" as="geometry" />
        </mxCell>
        <mxCell id="NWIx76PXNGJgdybxBwXj-38" value="" style="group" parent="1" vertex="1" connectable="0">
          <mxGeometry x="-880" y="340" width="690" height="480" as="geometry" />
        </mxCell>
        <mxCell id="NWIx76PXNGJgdybxBwXj-26" value="" style="rounded=0;whiteSpace=wrap;html=1;fillColor=#fff2cc;strokeColor=#d6b656;" parent="NWIx76PXNGJgdybxBwXj-38" vertex="1">
          <mxGeometry width="690" height="480" as="geometry" />
        </mxCell>
        <mxCell id="NWIx76PXNGJgdybxBwXj-15" value="&lt;font style=&quot;font-size: 14px;&quot;&gt;File Name&lt;/font&gt;" style="rounded=0;whiteSpace=wrap;html=1;" parent="NWIx76PXNGJgdybxBwXj-38" vertex="1">
          <mxGeometry x="90" y="80" width="120" height="60" as="geometry" />
        </mxCell>
        <mxCell id="NWIx76PXNGJgdybxBwXj-17" value="&lt;font style=&quot;font-size: 14px;&quot;&gt;File Size&lt;/font&gt;&lt;font style=&quot;font-size: 14px;&quot;&gt; &amp;amp; Addr&lt;br&gt;&lt;/font&gt;" style="rounded=0;whiteSpace=wrap;html=1;" parent="NWIx76PXNGJgdybxBwXj-38" vertex="1">
          <mxGeometry x="220" y="80" width="120" height="60" as="geometry" />
        </mxCell>
        <mxCell id="NWIx76PXNGJgdybxBwXj-18" value="&lt;font style=&quot;font-size: 14px;&quot;&gt;Write Func Type&lt;br&gt;&lt;/font&gt;" style="rounded=0;whiteSpace=wrap;html=1;" parent="NWIx76PXNGJgdybxBwXj-38" vertex="1">
          <mxGeometry x="350" y="80" width="120" height="60" as="geometry" />
        </mxCell>
        <mxCell id="NWIx76PXNGJgdybxBwXj-19" value="&lt;font style=&quot;font-size: 14px;&quot;&gt;Storage Memory Driver&lt;/font&gt;" style="rounded=0;whiteSpace=wrap;html=1;" parent="NWIx76PXNGJgdybxBwXj-38" vertex="1">
          <mxGeometry x="480" y="80" width="120" height="60" as="geometry" />
        </mxCell>
        <mxCell id="NWIx76PXNGJgdybxBwXj-20" value="&lt;font style=&quot;font-size: 14px;&quot;&gt;File Name&lt;/font&gt;" style="rounded=0;whiteSpace=wrap;html=1;" parent="NWIx76PXNGJgdybxBwXj-38" vertex="1">
          <mxGeometry x="90" y="160" width="120" height="60" as="geometry" />
        </mxCell>
        <mxCell id="NWIx76PXNGJgdybxBwXj-21" value="&lt;font style=&quot;font-size: 14px;&quot;&gt;File Size&lt;/font&gt;&lt;font style=&quot;font-size: 14px;&quot;&gt;&lt;font style=&quot;font-size: 14px;&quot;&gt; &amp;amp; Addr&lt;/font&gt;&lt;br&gt;&lt;/font&gt;" style="rounded=0;whiteSpace=wrap;html=1;" parent="NWIx76PXNGJgdybxBwXj-38" vertex="1">
          <mxGeometry x="220" y="160" width="120" height="60" as="geometry" />
        </mxCell>
        <mxCell id="NWIx76PXNGJgdybxBwXj-22" value="&lt;font style=&quot;font-size: 14px;&quot;&gt;Write Func&lt;/font&gt;&lt;font style=&quot;font-size: 14px;&quot;&gt; Type&lt;/font&gt;" style="rounded=0;whiteSpace=wrap;html=1;" parent="NWIx76PXNGJgdybxBwXj-38" vertex="1">
          <mxGeometry x="350" y="160" width="120" height="60" as="geometry" />
        </mxCell>
        <mxCell id="NWIx76PXNGJgdybxBwXj-23" value="&lt;font style=&quot;font-size: 14px;&quot;&gt;Storage Memory Driver&lt;/font&gt;" style="rounded=0;whiteSpace=wrap;html=1;" parent="NWIx76PXNGJgdybxBwXj-38" vertex="1">
          <mxGeometry x="480" y="160" width="120" height="60" as="geometry" />
        </mxCell>
        <mxCell id="NWIx76PXNGJgdybxBwXj-27" value="&lt;font style=&quot;font-size: 18px;&quot;&gt;File Map&lt;br&gt;&lt;/font&gt;" style="text;html=1;align=center;verticalAlign=middle;resizable=0;points=[];autosize=1;strokeColor=none;fillColor=none;" parent="NWIx76PXNGJgdybxBwXj-38" vertex="1">
          <mxGeometry x="305" width="90" height="40" as="geometry" />
        </mxCell>
        <mxCell id="NWIx76PXNGJgdybxBwXj-28" value="" style="shape=curlyBracket;whiteSpace=wrap;html=1;rounded=1;labelPosition=left;verticalLabelPosition=middle;align=right;verticalAlign=middle;" parent="NWIx76PXNGJgdybxBwXj-38" vertex="1">
          <mxGeometry x="50" y="70" width="20" height="340" as="geometry" />
        </mxCell>
        <mxCell id="NWIx76PXNGJgdybxBwXj-30" value="" style="shape=curlyBracket;whiteSpace=wrap;html=1;rounded=1;flipH=1;labelPosition=right;verticalLabelPosition=middle;align=left;verticalAlign=middle;" parent="NWIx76PXNGJgdybxBwXj-38" vertex="1">
          <mxGeometry x="620" y="70" width="20" height="340" as="geometry" />
        </mxCell>
        <mxCell id="NWIx76PXNGJgdybxBwXj-31" value="" style="shape=waypoint;sketch=0;fillStyle=solid;size=6;pointerEvents=1;points=[];fillColor=none;resizable=0;rotatable=0;perimeter=centerPerimeter;snapToPoint=1;" parent="NWIx76PXNGJgdybxBwXj-38" vertex="1">
          <mxGeometry x="335" y="250" width="20" height="20" as="geometry" />
        </mxCell>
        <mxCell id="NWIx76PXNGJgdybxBwXj-32" value="" style="shape=waypoint;sketch=0;fillStyle=solid;size=6;pointerEvents=1;points=[];fillColor=none;resizable=0;rotatable=0;perimeter=centerPerimeter;snapToPoint=1;" parent="NWIx76PXNGJgdybxBwXj-38" vertex="1">
          <mxGeometry x="335" y="270" width="20" height="20" as="geometry" />
        </mxCell>
        <mxCell id="NWIx76PXNGJgdybxBwXj-33" value="" style="shape=waypoint;sketch=0;fillStyle=solid;size=6;pointerEvents=1;points=[];fillColor=none;resizable=0;rotatable=0;perimeter=centerPerimeter;snapToPoint=1;" parent="NWIx76PXNGJgdybxBwXj-38" vertex="1">
          <mxGeometry x="335" y="290" width="20" height="20" as="geometry" />
        </mxCell>
        <mxCell id="NWIx76PXNGJgdybxBwXj-34" value="&lt;font style=&quot;font-size: 14px;&quot;&gt;Storage Memory Driver&lt;/font&gt;" style="rounded=0;whiteSpace=wrap;html=1;" parent="NWIx76PXNGJgdybxBwXj-38" vertex="1">
          <mxGeometry x="480" y="330" width="120" height="60" as="geometry" />
        </mxCell>
        <mxCell id="NWIx76PXNGJgdybxBwXj-35" value="&lt;font style=&quot;font-size: 14px;&quot;&gt;Write Func&lt;/font&gt;&lt;font style=&quot;font-size: 14px;&quot;&gt; Type&lt;/font&gt;" style="rounded=0;whiteSpace=wrap;html=1;" parent="NWIx76PXNGJgdybxBwXj-38" vertex="1">
          <mxGeometry x="350" y="330" width="120" height="60" as="geometry" />
        </mxCell>
        <mxCell id="NWIx76PXNGJgdybxBwXj-36" value="&lt;font style=&quot;font-size: 14px;&quot;&gt;File Size&lt;/font&gt;&lt;font style=&quot;font-size: 14px;&quot;&gt; &amp;amp; Addr&lt;/font&gt;" style="rounded=0;whiteSpace=wrap;html=1;" parent="NWIx76PXNGJgdybxBwXj-38" vertex="1">
          <mxGeometry x="220" y="330" width="120" height="60" as="geometry" />
        </mxCell>
        <mxCell id="NWIx76PXNGJgdybxBwXj-37" value="&lt;font style=&quot;font-size: 14px;&quot;&gt;File Name&lt;/font&gt;" style="rounded=0;whiteSpace=wrap;html=1;" parent="NWIx76PXNGJgdybxBwXj-38" vertex="1">
          <mxGeometry x="90" y="330" width="120" height="60" as="geometry" />
        </mxCell>
        <mxCell id="-07HqblfBBOj3RJs5DhZ-9" value="List of memory components" style="text;html=1;align=center;verticalAlign=middle;resizable=0;points=[];autosize=1;strokeColor=none;fillColor=none;" parent="NWIx76PXNGJgdybxBwXj-38" vertex="1">
          <mxGeometry x="260" y="30" width="170" height="30" as="geometry" />
        </mxCell>
        <mxCell id="NWIx76PXNGJgdybxBwXj-39" style="orthogonalLoop=1;jettySize=auto;html=1;entryX=0;entryY=0.5;entryDx=0;entryDy=0;strokeColor=default;rounded=0;jumpStyle=none;" parent="1" source="NWIx76PXNGJgdybxBwXj-19" target="NWIx76PXNGJgdybxBwXj-2" edge="1">
          <mxGeometry relative="1" as="geometry" />
        </mxCell>
        <mxCell id="-07HqblfBBOj3RJs5DhZ-7" value="" style="shape=curlyBracket;whiteSpace=wrap;html=1;rounded=1;labelPosition=left;verticalLabelPosition=middle;align=right;verticalAlign=middle;" parent="1" vertex="1">
          <mxGeometry x="550" y="270" width="20" height="360" as="geometry" />
        </mxCell>
        <mxCell id="8eoCRsITl5AoUwoS5pQE-1" value="&lt;pre style=&quot;background-color:#2b2b2b;color:#a9b7c6;font-family:&#39;JetBrains Mono&#39;,monospace;font-size:9.8pt;&quot;&gt;&lt;span style=&quot;color:#cc7832;&quot;&gt;typedef struct &lt;/span&gt;&lt;span style=&quot;color:#b5b6e3;&quot;&gt;fileops_t_ &lt;/span&gt;{&lt;br&gt;  &lt;span style=&quot;color:#cc7832;&quot;&gt;void &lt;/span&gt;(*&lt;span style=&quot;color:#9373a5;&quot;&gt;fops_open&lt;/span&gt;)(&lt;span style=&quot;color:#cc7832;&quot;&gt;struct &lt;/span&gt;&lt;span style=&quot;color:#b5b6e3;&quot;&gt;fileops_t_ &lt;/span&gt;*self&lt;span style=&quot;color:#cc7832;&quot;&gt;, const char &lt;/span&gt;*file)&lt;span style=&quot;color:#cc7832;&quot;&gt;;&lt;br&gt;&lt;/span&gt;&lt;span style=&quot;color:#cc7832;&quot;&gt;  void &lt;/span&gt;(*&lt;span style=&quot;color:#9373a5;&quot;&gt;fops_close&lt;/span&gt;)(&lt;span style=&quot;color:#cc7832;&quot;&gt;struct &lt;/span&gt;&lt;span style=&quot;color:#b5b6e3;&quot;&gt;fileops_t_ &lt;/span&gt;*self)&lt;span style=&quot;color:#cc7832;&quot;&gt;;&lt;br&gt;&lt;/span&gt;&lt;span style=&quot;color:#cc7832;&quot;&gt;  int &lt;/span&gt;(*&lt;span style=&quot;color:#9373a5;&quot;&gt;fops_write_page&lt;/span&gt;)(&lt;span style=&quot;color:#cc7832;&quot;&gt;struct &lt;/span&gt;&lt;span style=&quot;color:#b5b6e3;&quot;&gt;fileops_t_ &lt;/span&gt;*self&lt;span style=&quot;color:#cc7832;&quot;&gt;, void &lt;/span&gt;*buf&lt;span style=&quot;color:#cc7832;&quot;&gt;, int &lt;/span&gt;oft)&lt;span style=&quot;color:#cc7832;&quot;&gt;;&lt;br&gt;&lt;/span&gt;&lt;span style=&quot;color:#cc7832;&quot;&gt;  int &lt;/span&gt;(*&lt;span style=&quot;color:#9373a5;&quot;&gt;fops_memcpy&lt;/span&gt;)(&lt;span style=&quot;color:#cc7832;&quot;&gt;struct &lt;/span&gt;&lt;span style=&quot;color:#b5b6e3;&quot;&gt;fileops_t_ &lt;/span&gt;*self&lt;span style=&quot;color:#cc7832;&quot;&gt;, void &lt;/span&gt;*dst&lt;span style=&quot;color:#cc7832;&quot;&gt;, void &lt;/span&gt;*src&lt;span style=&quot;color:#cc7832;&quot;&gt;, int &lt;/span&gt;count)&lt;span style=&quot;color:#cc7832;&quot;&gt;;&lt;br&gt;&lt;/span&gt;&lt;span style=&quot;color:#cc7832;&quot;&gt;  int &lt;/span&gt;(*&lt;span style=&quot;color:#9373a5;&quot;&gt;fops_erase_page&lt;/span&gt;)(&lt;span style=&quot;color:#cc7832;&quot;&gt;struct &lt;/span&gt;&lt;span style=&quot;color:#b5b6e3;&quot;&gt;fileops_t_ &lt;/span&gt;*self&lt;span style=&quot;color:#cc7832;&quot;&gt;, int &lt;/span&gt;page_number)&lt;span style=&quot;color:#cc7832;&quot;&gt;;&lt;br&gt;&lt;/span&gt;&lt;span style=&quot;color:#cc7832;&quot;&gt;  int &lt;/span&gt;(*&lt;span style=&quot;color:#9373a5;&quot;&gt;fops_flash_lock&lt;/span&gt;)(&lt;span style=&quot;color:#cc7832;&quot;&gt;struct &lt;/span&gt;&lt;span style=&quot;color:#b5b6e3;&quot;&gt;fileops_t_ &lt;/span&gt;*self&lt;span style=&quot;color:#cc7832;&quot;&gt;, int &lt;/span&gt;lock)&lt;span style=&quot;color:#cc7832;&quot;&gt;;&lt;br&gt;&lt;/span&gt;&lt;span style=&quot;color:#cc7832;&quot;&gt;  int &lt;/span&gt;(*&lt;span style=&quot;color:#9373a5;&quot;&gt;fops_flash_page_locker&lt;/span&gt;)(&lt;span style=&quot;color:#cc7832;&quot;&gt;struct &lt;/span&gt;&lt;span style=&quot;color:#b5b6e3;&quot;&gt;fileops_t_ &lt;/span&gt;*self&lt;span style=&quot;color:#cc7832;&quot;&gt;, int &lt;/span&gt;page_number&lt;span style=&quot;color:#cc7832;&quot;&gt;, int &lt;/span&gt;lock)&lt;span style=&quot;color:#cc7832;&quot;&gt;;&lt;br&gt;&lt;/span&gt;&lt;span style=&quot;color:#cc7832;&quot;&gt;  void &lt;/span&gt;(*&lt;span style=&quot;color:#9373a5;&quot;&gt;fops_flash_write_protect&lt;/span&gt;)(&lt;span style=&quot;color:#cc7832;&quot;&gt;struct &lt;/span&gt;&lt;span style=&quot;color:#b5b6e3;&quot;&gt;fileops_t_ &lt;/span&gt;*self&lt;span style=&quot;color:#cc7832;&quot;&gt;, int &lt;/span&gt;enable)&lt;span style=&quot;color:#cc7832;&quot;&gt;;&lt;br&gt;&lt;/span&gt;&lt;span style=&quot;color:#cc7832;&quot;&gt;&lt;br&gt;&lt;/span&gt;&lt;span style=&quot;color:#cc7832;&quot;&gt;  const &lt;/span&gt;&lt;span style=&quot;color:#b9bcd1;&quot;&gt;uint32_t &lt;/span&gt;&lt;span style=&quot;color:#9373a5;&quot;&gt;flash_addr&lt;/span&gt;&lt;span style=&quot;color:#cc7832;&quot;&gt;;&lt;br&gt;&lt;/span&gt;&lt;span style=&quot;color:#cc7832;&quot;&gt;  const &lt;/span&gt;&lt;span style=&quot;color:#b9bcd1;&quot;&gt;uint32_t &lt;/span&gt;&lt;span style=&quot;color:#9373a5;&quot;&gt;page_size&lt;/span&gt;&lt;span style=&quot;color:#cc7832;&quot;&gt;;&lt;br&gt;&lt;/span&gt;&lt;span style=&quot;color:#cc7832;&quot;&gt;  const &lt;/span&gt;&lt;span style=&quot;color:#b9bcd1;&quot;&gt;uint32_t &lt;/span&gt;&lt;span style=&quot;color:#9373a5;&quot;&gt;num_regions&lt;/span&gt;&lt;span style=&quot;color:#cc7832;&quot;&gt;;&lt;br&gt;&lt;/span&gt;&lt;span style=&quot;color:#cc7832;&quot;&gt;  const &lt;/span&gt;&lt;span style=&quot;color:#b9bcd1;&quot;&gt;uint32_t &lt;/span&gt;&lt;span style=&quot;color:#9373a5;&quot;&gt;erase_page_min&lt;/span&gt;&lt;span style=&quot;color:#cc7832;&quot;&gt;;&lt;br&gt;&lt;/span&gt;&lt;span style=&quot;color:#cc7832;&quot;&gt;  const &lt;/span&gt;&lt;span style=&quot;color:#b9bcd1;&quot;&gt;uint32_t &lt;/span&gt;&lt;span style=&quot;color:#9373a5;&quot;&gt;erase_buffer_size&lt;/span&gt;&lt;span style=&quot;color:#cc7832;&quot;&gt;;&lt;br&gt;&lt;/span&gt;&lt;span style=&quot;color:#cc7832;&quot;&gt;  &lt;/span&gt;&lt;span style=&quot;color:#b9bcd1;&quot;&gt;uint8_t &lt;/span&gt;*&lt;span style=&quot;color:#9373a5;&quot;&gt;erase_buffer&lt;/span&gt;&lt;span style=&quot;color:#cc7832;&quot;&gt;;&lt;br&gt;&lt;/span&gt;&lt;span style=&quot;color:#cc7832;&quot;&gt;  &lt;/span&gt;&lt;span style=&quot;color:#b9bcd1;&quot;&gt;write_buffers_t &lt;/span&gt;&lt;span style=&quot;color:#9373a5;&quot;&gt;write_buffers&lt;/span&gt;[&lt;span style=&quot;color:#908b25;&quot;&gt;NUM_WRITERS&lt;/span&gt;]&lt;span style=&quot;color:#cc7832;&quot;&gt;;&lt;br&gt;&lt;/span&gt;&lt;span style=&quot;color:#bbb529;&quot;&gt;#ifdef &lt;/span&gt;&lt;span style=&quot;color:#908b25;&quot;&gt;__x86_64__&lt;br&gt;&lt;/span&gt;&lt;span style=&quot;color:#908b25;&quot;&gt;  &lt;/span&gt;&lt;span style=&quot;color:#b9bcd1;&quot;&gt;uint8_t &lt;/span&gt;*&lt;span style=&quot;color:#9373a5;&quot;&gt;memmap&lt;/span&gt;&lt;span style=&quot;color:#cc7832;&quot;&gt;;&lt;br&gt;&lt;/span&gt;&lt;span style=&quot;color:#bbb529;&quot;&gt;#endif&lt;br&gt;&lt;/span&gt;} &lt;span style=&quot;color:#b9bcd1;&quot;&gt;fileops_t&lt;/span&gt;&lt;span style=&quot;color:#cc7832;&quot;&gt;;&lt;/span&gt;&lt;/pre&gt;" style="text;whiteSpace=wrap;html=1;" vertex="1" parent="1">
          <mxGeometry x="575" y="270" width="560" height="380" as="geometry" />
        </mxCell>
        <mxCell id="8eoCRsITl5AoUwoS5pQE-9" value="" style="edgeStyle=orthogonalEdgeStyle;rounded=0;orthogonalLoop=1;jettySize=auto;html=1;" edge="1" parent="1" source="8eoCRsITl5AoUwoS5pQE-2" target="8eoCRsITl5AoUwoS5pQE-8">
          <mxGeometry relative="1" as="geometry">
            <Array as="points">
              <mxPoint x="-40" y="720" />
              <mxPoint x="-120" y="720" />
            </Array>
          </mxGeometry>
        </mxCell>
        <mxCell id="8eoCRsITl5AoUwoS5pQE-13" style="edgeStyle=orthogonalEdgeStyle;rounded=0;orthogonalLoop=1;jettySize=auto;html=1;entryX=0.5;entryY=0;entryDx=0;entryDy=0;" edge="1" parent="1" source="8eoCRsITl5AoUwoS5pQE-2" target="8eoCRsITl5AoUwoS5pQE-11">
          <mxGeometry relative="1" as="geometry" />
        </mxCell>
        <mxCell id="8eoCRsITl5AoUwoS5pQE-14" style="edgeStyle=orthogonalEdgeStyle;rounded=0;orthogonalLoop=1;jettySize=auto;html=1;entryX=0.5;entryY=0;entryDx=0;entryDy=0;" edge="1" parent="1" source="8eoCRsITl5AoUwoS5pQE-2" target="8eoCRsITl5AoUwoS5pQE-12">
          <mxGeometry relative="1" as="geometry">
            <Array as="points">
              <mxPoint x="-40" y="720" />
              <mxPoint x="40" y="720" />
            </Array>
          </mxGeometry>
        </mxCell>
        <mxCell id="8eoCRsITl5AoUwoS5pQE-2" value="VA41630" style="whiteSpace=wrap;html=1;fillColor=#d5e8d4;strokeColor=#82b366;rounded=0;" vertex="1" parent="1">
          <mxGeometry x="-100" y="620" width="120" height="60" as="geometry" />
        </mxCell>
        <mxCell id="8eoCRsITl5AoUwoS5pQE-16" style="edgeStyle=orthogonalEdgeStyle;rounded=0;orthogonalLoop=1;jettySize=auto;html=1;" edge="1" parent="1" source="8eoCRsITl5AoUwoS5pQE-4" target="8eoCRsITl5AoUwoS5pQE-15">
          <mxGeometry relative="1" as="geometry" />
        </mxCell>
        <mxCell id="8eoCRsITl5AoUwoS5pQE-4" value="SAMV71" style="whiteSpace=wrap;html=1;fillColor=#d5e8d4;strokeColor=#82b366;rounded=0;" vertex="1" parent="1">
          <mxGeometry x="80" y="620" width="120" height="60" as="geometry" />
        </mxCell>
        <mxCell id="8eoCRsITl5AoUwoS5pQE-21" style="edgeStyle=orthogonalEdgeStyle;rounded=0;orthogonalLoop=1;jettySize=auto;html=1;" edge="1" parent="1" source="8eoCRsITl5AoUwoS5pQE-5" target="8eoCRsITl5AoUwoS5pQE-17">
          <mxGeometry relative="1" as="geometry">
            <Array as="points">
              <mxPoint x="380" y="720" />
              <mxPoint x="260" y="720" />
            </Array>
          </mxGeometry>
        </mxCell>
        <mxCell id="8eoCRsITl5AoUwoS5pQE-22" style="edgeStyle=orthogonalEdgeStyle;rounded=0;orthogonalLoop=1;jettySize=auto;html=1;" edge="1" parent="1" source="8eoCRsITl5AoUwoS5pQE-5" target="8eoCRsITl5AoUwoS5pQE-18">
          <mxGeometry relative="1" as="geometry">
            <Array as="points">
              <mxPoint x="380" y="720" />
              <mxPoint x="340" y="720" />
            </Array>
          </mxGeometry>
        </mxCell>
        <mxCell id="8eoCRsITl5AoUwoS5pQE-23" style="edgeStyle=orthogonalEdgeStyle;rounded=0;orthogonalLoop=1;jettySize=auto;html=1;entryX=0.5;entryY=0;entryDx=0;entryDy=0;" edge="1" parent="1" source="8eoCRsITl5AoUwoS5pQE-5" target="8eoCRsITl5AoUwoS5pQE-19">
          <mxGeometry relative="1" as="geometry">
            <Array as="points">
              <mxPoint x="380" y="720" />
              <mxPoint x="420" y="720" />
            </Array>
          </mxGeometry>
        </mxCell>
        <mxCell id="8eoCRsITl5AoUwoS5pQE-24" style="edgeStyle=orthogonalEdgeStyle;rounded=0;orthogonalLoop=1;jettySize=auto;html=1;entryX=0.5;entryY=0;entryDx=0;entryDy=0;" edge="1" parent="1" source="8eoCRsITl5AoUwoS5pQE-5" target="8eoCRsITl5AoUwoS5pQE-20">
          <mxGeometry relative="1" as="geometry">
            <Array as="points">
              <mxPoint x="380" y="720" />
              <mxPoint x="500" y="720" />
            </Array>
          </mxGeometry>
        </mxCell>
        <mxCell id="8eoCRsITl5AoUwoS5pQE-5" value="x86" style="whiteSpace=wrap;html=1;fillColor=#d5e8d4;strokeColor=#82b366;rounded=0;" vertex="1" parent="1">
          <mxGeometry x="320" y="630" width="120" height="60" as="geometry" />
        </mxCell>
        <mxCell id="8eoCRsITl5AoUwoS5pQE-8" value="EBI NOR" style="whiteSpace=wrap;html=1;fillColor=#d5e8d4;strokeColor=#82b366;rounded=0;" vertex="1" parent="1">
          <mxGeometry x="-160" y="770" width="80" height="60" as="geometry" />
        </mxCell>
        <mxCell id="8eoCRsITl5AoUwoS5pQE-11" value="EBI SRAM" style="whiteSpace=wrap;html=1;fillColor=#d5e8d4;strokeColor=#82b366;rounded=0;" vertex="1" parent="1">
          <mxGeometry x="-80" y="770" width="80" height="60" as="geometry" />
        </mxCell>
        <mxCell id="8eoCRsITl5AoUwoS5pQE-12" value="FRAM" style="whiteSpace=wrap;html=1;fillColor=#d5e8d4;strokeColor=#82b366;rounded=0;" vertex="1" parent="1">
          <mxGeometry y="770" width="80" height="60" as="geometry" />
        </mxCell>
        <mxCell id="8eoCRsITl5AoUwoS5pQE-15" value="EEFC" style="whiteSpace=wrap;html=1;fillColor=#d5e8d4;strokeColor=#82b366;rounded=0;" vertex="1" parent="1">
          <mxGeometry x="100" y="770" width="80" height="60" as="geometry" />
        </mxCell>
        <mxCell id="8eoCRsITl5AoUwoS5pQE-17" value="EBI NOR" style="whiteSpace=wrap;html=1;fillColor=#d5e8d4;strokeColor=#82b366;rounded=0;" vertex="1" parent="1">
          <mxGeometry x="220" y="770" width="80" height="60" as="geometry" />
        </mxCell>
        <mxCell id="8eoCRsITl5AoUwoS5pQE-18" value="EBI SRAM" style="whiteSpace=wrap;html=1;fillColor=#d5e8d4;strokeColor=#82b366;rounded=0;" vertex="1" parent="1">
          <mxGeometry x="300" y="770" width="80" height="60" as="geometry" />
        </mxCell>
        <mxCell id="8eoCRsITl5AoUwoS5pQE-19" value="FRAM" style="whiteSpace=wrap;html=1;fillColor=#d5e8d4;strokeColor=#82b366;rounded=0;" vertex="1" parent="1">
          <mxGeometry x="380" y="770" width="80" height="60" as="geometry" />
        </mxCell>
        <mxCell id="8eoCRsITl5AoUwoS5pQE-20" value="EEFC" style="whiteSpace=wrap;html=1;fillColor=#d5e8d4;strokeColor=#82b366;rounded=0;" vertex="1" parent="1">
          <mxGeometry x="460" y="770" width="80" height="60" as="geometry" />
        </mxCell>
      </root>
    </mxGraphModel>
  </diagram>
</mxfile>
